<mxfile host="app.diagrams.net" agent="Mozilla/5.0 (Windows NT 10.0; Win64; x64) AppleWebKit/537.36 (KHTML, like Gecko) Chrome/127.0.0.0 Safari/537.36" version="24.7.6">
  <diagram name="Systems inventory" id="SNAkapgPY6HxnCmydNGv">
    <mxGraphModel grid="1" page="1" gridSize="10" guides="1" tooltips="1" connect="1" arrows="1" fold="1" pageScale="1" pageWidth="850" pageHeight="1100" math="0" shadow="0">
      <root>
        <mxCell id="0" />
        <mxCell id="1" parent="0" />
        <mxCell id="j0PRnbDRKlisl1NP00z6-9" value="SAP" style="swimlane;whiteSpace=wrap;html=1;startSize=23;fillColor=none;strokeColor=#000000;" vertex="1" parent="1">
          <mxGeometry x="20" y="140" width="200" height="270" as="geometry">
            <mxRectangle x="20" y="140" width="60" height="30" as="alternateBounds" />
          </mxGeometry>
        </mxCell>
        <mxCell id="j0PRnbDRKlisl1NP00z6-10" value="Project (WBS) | Projet (WBS)" style="rounded=0;whiteSpace=wrap;html=1;" vertex="1" parent="j0PRnbDRKlisl1NP00z6-9">
          <mxGeometry y="120" width="200" height="30" as="geometry" />
        </mxCell>
        <mxCell id="j0PRnbDRKlisl1NP00z6-15" value="Suppliers | Fournisseurs" style="rounded=0;whiteSpace=wrap;html=1;" vertex="1" parent="j0PRnbDRKlisl1NP00z6-9">
          <mxGeometry y="60" width="200" height="30" as="geometry" />
        </mxCell>
        <mxCell id="j0PRnbDRKlisl1NP00z6-19" value="Customers | Clients (???)" style="rounded=0;whiteSpace=wrap;html=1;" vertex="1" parent="j0PRnbDRKlisl1NP00z6-9">
          <mxGeometry y="90" width="200" height="30" as="geometry" />
        </mxCell>
        <mxCell id="j0PRnbDRKlisl1NP00z6-29" value="Products | Produits (???)" style="rounded=0;whiteSpace=wrap;html=1;" vertex="1" parent="j0PRnbDRKlisl1NP00z6-9">
          <mxGeometry y="30" width="200" height="30" as="geometry" />
        </mxCell>
        <mxCell id="EfLBoHMQqq-CBlRIt_d9-131" value="SAP - PO - Commande - Facture" style="rounded=0;whiteSpace=wrap;html=1;" vertex="1" parent="j0PRnbDRKlisl1NP00z6-9">
          <mxGeometry y="150" width="200" height="30" as="geometry" />
        </mxCell>
        <mxCell id="7NPv9n0WX9blXaOLmNNO-3" value="Immobilisation (gov&#39;t)" style="rounded=0;whiteSpace=wrap;html=1;" vertex="1" parent="j0PRnbDRKlisl1NP00z6-9">
          <mxGeometry y="180" width="200" height="30" as="geometry" />
        </mxCell>
        <mxCell id="7NPv9n0WX9blXaOLmNNO-4" value="Etc." style="rounded=0;whiteSpace=wrap;html=1;" vertex="1" parent="j0PRnbDRKlisl1NP00z6-9">
          <mxGeometry y="210" width="200" height="30" as="geometry" />
        </mxCell>
        <mxCell id="j0PRnbDRKlisl1NP00z6-16" value="Synchrone" style="swimlane;whiteSpace=wrap;html=1;startSize=23;" vertex="1" parent="1">
          <mxGeometry x="250" y="140" width="200" height="640" as="geometry">
            <mxRectangle x="280" y="140" width="100" height="30" as="alternateBounds" />
          </mxGeometry>
        </mxCell>
        <mxCell id="j0PRnbDRKlisl1NP00z6-17" value="Registry | Registre&amp;nbsp;&amp;nbsp;" style="rounded=0;whiteSpace=wrap;html=1;" vertex="1" parent="j0PRnbDRKlisl1NP00z6-16">
          <mxGeometry y="30" width="200" height="30" as="geometry" />
        </mxCell>
        <mxCell id="8NnFMZERw5R8pvI_xSIl-4" value="Registry request | Demande de registre&amp;nbsp;&amp;nbsp;" style="rounded=0;whiteSpace=wrap;html=1;" vertex="1" parent="j0PRnbDRKlisl1NP00z6-16">
          <mxGeometry y="60" width="200" height="30" as="geometry" />
        </mxCell>
        <mxCell id="j0PRnbDRKlisl1NP00z6-18" value="Contracts | Contrat" style="rounded=0;whiteSpace=wrap;html=1;" vertex="1" parent="j0PRnbDRKlisl1NP00z6-16">
          <mxGeometry y="90" width="200" height="30" as="geometry" />
        </mxCell>
        <mxCell id="j0PRnbDRKlisl1NP00z6-32" value="Digitized documents | Documents numérisés" style="rounded=0;whiteSpace=wrap;html=1;" vertex="1" parent="j0PRnbDRKlisl1NP00z6-16">
          <mxGeometry y="120" width="200" height="30" as="geometry" />
        </mxCell>
        <mxCell id="EfLBoHMQqq-CBlRIt_d9-10" value="Project Overview | Fiche de projet" style="rounded=0;whiteSpace=wrap;html=1;" vertex="1" parent="j0PRnbDRKlisl1NP00z6-16">
          <mxGeometry y="150" width="200" height="30" as="geometry" />
        </mxCell>
        <mxCell id="j0PRnbDRKlisl1NP00z6-34" value="Festivals (submissions)| Festivals (soumissions)" style="rounded=0;whiteSpace=wrap;html=1;" vertex="1" parent="j0PRnbDRKlisl1NP00z6-16">
          <mxGeometry y="180" width="200" height="30" as="geometry" />
        </mxCell>
        <mxCell id="j0PRnbDRKlisl1NP00z6-44" value="Production Record | Fiche Technique Production" style="rounded=0;whiteSpace=wrap;html=1;" vertex="1" parent="j0PRnbDRKlisl1NP00z6-16">
          <mxGeometry y="210" width="200" height="30" as="geometry" />
        </mxCell>
        <mxCell id="j0PRnbDRKlisl1NP00z6-43" value="Distribution Record | Fiche Technique Distribution" style="rounded=0;whiteSpace=wrap;html=1;fillColor=#FFFF33;" vertex="1" parent="j0PRnbDRKlisl1NP00z6-16">
          <mxGeometry y="240" width="200" height="30" as="geometry" />
        </mxCell>
        <mxCell id="j0PRnbDRKlisl1NP00z6-46" value="FAP/ACIC Record | Fiche Technique FAP/ACIC&amp;nbsp;" style="rounded=0;whiteSpace=wrap;html=1;fillColor=#FFFF33;" vertex="1" parent="j0PRnbDRKlisl1NP00z6-16">
          <mxGeometry y="270" width="200" height="30" as="geometry" />
        </mxCell>
        <mxCell id="j0PRnbDRKlisl1NP00z6-48" value="Format (catalogue) | Format (catalogage)&lt;span style=&quot;color: rgba(0, 0, 0, 0); font-family: monospace; font-size: 0px; text-align: start; text-wrap: nowrap;&quot;&gt;%3CmxGraphModel%3E%3Croot%3E%3CmxCell%20id%3D%220%22%2F%3E%3CmxCell%20id%3D%221%22%20parent%3D%220%22%2F%3E%3CmxCell%20id%3D%222%22%20value%3D%22Format%20(catalogue)%20%7C%20Format%20(catalogage)%22%20style%3D%22rounded%3D0%3BwhiteSpace%3Dwrap%3Bhtml%3D1%3B%22%20vertex%3D%221%22%20parent%3D%221%22%3E%3CmxGeometry%20x%3D%22260%22%20y%3D%22440%22%20width%3D%22200%22%20height%3D%2230%22%20as%3D%22geometry%22%2F%3E%3C%2FmxCell%3E%3C%2Froot%3E%3C%2FmxGraphModel%3E&lt;/span&gt;" style="rounded=0;whiteSpace=wrap;html=1;" vertex="1" parent="j0PRnbDRKlisl1NP00z6-16">
          <mxGeometry y="300" width="200" height="30" as="geometry" />
        </mxCell>
        <mxCell id="j0PRnbDRKlisl1NP00z6-49" value="Approval matrix ??? | Matrice approbation fiche technique" style="rounded=0;whiteSpace=wrap;html=1;" vertex="1" parent="j0PRnbDRKlisl1NP00z6-16">
          <mxGeometry y="330" width="200" height="30" as="geometry" />
        </mxCell>
        <mxCell id="EfLBoHMQqq-CBlRIt_d9-1" value="Stockshots | Plans d&#39;archives" style="rounded=0;whiteSpace=wrap;html=1;" vertex="1" parent="j0PRnbDRKlisl1NP00z6-16">
          <mxGeometry y="360" width="200" height="30" as="geometry" />
        </mxCell>
        <mxCell id="j0PRnbDRKlisl1NP00z6-30" value="SEGDA: droit intrants et extrants&amp;nbsp;" style="rounded=0;whiteSpace=wrap;html=1;fillColor=none;" vertex="1" parent="j0PRnbDRKlisl1NP00z6-16">
          <mxGeometry y="390" width="200" height="30" as="geometry" />
        </mxCell>
        <mxCell id="EfLBoHMQqq-CBlRIt_d9-4" value="SEGDA: royalties | SEGDA: redevances (in development)" style="rounded=0;whiteSpace=wrap;html=1;fillColor=none;" vertex="1" parent="j0PRnbDRKlisl1NP00z6-16">
          <mxGeometry y="420" width="200" height="30" as="geometry" />
        </mxCell>
        <mxCell id="EfLBoHMQqq-CBlRIt_d9-6" value="Film Digitisation??? | Suivi de la numérisation des films" style="rounded=0;whiteSpace=wrap;html=1;" vertex="1" parent="j0PRnbDRKlisl1NP00z6-16">
          <mxGeometry y="450" width="200" height="30" as="geometry" />
        </mxCell>
        <mxCell id="EfLBoHMQqq-CBlRIt_d9-8" value="Thesaurus" style="rounded=0;whiteSpace=wrap;html=1;fillColor=#FFFF33;" vertex="1" parent="j0PRnbDRKlisl1NP00z6-16">
          <mxGeometry y="480" width="200" height="30" as="geometry" />
        </mxCell>
        <mxCell id="EfLBoHMQqq-CBlRIt_d9-9" value="Vaults | Voûte" style="rounded=0;whiteSpace=wrap;html=1;" vertex="1" parent="j0PRnbDRKlisl1NP00z6-16">
          <mxGeometry y="510" width="200" height="30" as="geometry" />
        </mxCell>
        <mxCell id="j0PRnbDRKlisl1NP00z6-33" value="DVD copy | Copie DVD" style="rounded=0;whiteSpace=wrap;html=1;" vertex="1" parent="j0PRnbDRKlisl1NP00z6-16">
          <mxGeometry y="540" width="200" height="30" as="geometry" />
        </mxCell>
        <mxCell id="EfLBoHMQqq-CBlRIt_d9-12" value="Person | Personne" style="rounded=0;whiteSpace=wrap;html=1;" vertex="1" parent="j0PRnbDRKlisl1NP00z6-16">
          <mxGeometry y="570" width="200" height="30" as="geometry" />
        </mxCell>
        <mxCell id="EfLBoHMQqq-CBlRIt_d9-13" value="Autodeclaration" style="rounded=0;whiteSpace=wrap;html=1;" vertex="1" parent="j0PRnbDRKlisl1NP00z6-16">
          <mxGeometry y="600" width="200" height="30" as="geometry" />
        </mxCell>
        <mxCell id="EfLBoHMQqq-CBlRIt_d9-19" value="Dynamics" style="swimlane;whiteSpace=wrap;html=1;" vertex="1" parent="1">
          <mxGeometry x="500" y="140" width="210" height="210" as="geometry" />
        </mxCell>
        <mxCell id="EfLBoHMQqq-CBlRIt_d9-39" value="Sales Hub" style="rounded=0;whiteSpace=wrap;html=1;" vertex="1" parent="EfLBoHMQqq-CBlRIt_d9-19">
          <mxGeometry y="25" width="210" height="30" as="geometry" />
        </mxCell>
        <mxCell id="EfLBoHMQqq-CBlRIt_d9-40" value="Events App" style="rounded=0;whiteSpace=wrap;html=1;" vertex="1" parent="EfLBoHMQqq-CBlRIt_d9-19">
          <mxGeometry y="55" width="210" height="30" as="geometry" />
        </mxCell>
        <mxCell id="EfLBoHMQqq-CBlRIt_d9-43" value="Audiovisual Hub (Archives) - in progress" style="rounded=0;whiteSpace=wrap;html=1;" vertex="1" parent="EfLBoHMQqq-CBlRIt_d9-19">
          <mxGeometry y="85" width="210" height="30" as="geometry" />
        </mxCell>
        <mxCell id="EfLBoHMQqq-CBlRIt_d9-50" value="Finance" style="rounded=0;whiteSpace=wrap;html=1;" vertex="1" parent="EfLBoHMQqq-CBlRIt_d9-19">
          <mxGeometry y="115" width="210" height="30" as="geometry" />
        </mxCell>
        <mxCell id="EfLBoHMQqq-CBlRIt_d9-51" value="Festivals - TBD" style="rounded=0;whiteSpace=wrap;html=1;" vertex="1" parent="EfLBoHMQqq-CBlRIt_d9-19">
          <mxGeometry y="145" width="210" height="30" as="geometry" />
        </mxCell>
        <mxCell id="EfLBoHMQqq-CBlRIt_d9-95" value="Varia - connectors" style="rounded=0;whiteSpace=wrap;html=1;" vertex="1" parent="EfLBoHMQqq-CBlRIt_d9-19">
          <mxGeometry y="175" width="210" height="30" as="geometry" />
        </mxCell>
        <mxCell id="EfLBoHMQqq-CBlRIt_d9-107" value="Varia PowerApps (canvas)" style="swimlane;whiteSpace=wrap;html=1;startSize=23;fillColor=none;strokeColor=#000000;" vertex="1" parent="1">
          <mxGeometry x="980" y="140" width="200" height="360" as="geometry">
            <mxRectangle x="20" y="140" width="60" height="30" as="alternateBounds" />
          </mxGeometry>
        </mxCell>
        <mxCell id="EfLBoHMQqq-CBlRIt_d9-108" value="| Reservation de salles (Balmoral)" style="rounded=0;whiteSpace=wrap;html=1;" vertex="1" parent="EfLBoHMQqq-CBlRIt_d9-107">
          <mxGeometry y="80" width="200" height="30" as="geometry" />
        </mxCell>
        <mxCell id="EfLBoHMQqq-CBlRIt_d9-110" value="Advocates | Emissaires???" style="rounded=0;whiteSpace=wrap;html=1;" vertex="1" parent="EfLBoHMQqq-CBlRIt_d9-107">
          <mxGeometry y="50" width="200" height="30" as="geometry" />
        </mxCell>
        <mxCell id="EfLBoHMQqq-CBlRIt_d9-111" value="Employee evaluation" style="rounded=0;whiteSpace=wrap;html=1;" vertex="1" parent="EfLBoHMQqq-CBlRIt_d9-107">
          <mxGeometry y="20" width="200" height="30" as="geometry" />
        </mxCell>
        <mxCell id="EfLBoHMQqq-CBlRIt_d9-112" value="Varia FileMakers&amp;nbsp;" style="swimlane;whiteSpace=wrap;html=1;startSize=23;fillColor=none;strokeColor=#000000;" vertex="1" parent="1">
          <mxGeometry x="750" y="139" width="200" height="311" as="geometry">
            <mxRectangle x="20" y="140" width="60" height="30" as="alternateBounds" />
          </mxGeometry>
        </mxCell>
        <mxCell id="EfLBoHMQqq-CBlRIt_d9-113" value="Controle de qualité technique (CQP)" style="rounded=0;whiteSpace=wrap;html=1;" vertex="1" parent="EfLBoHMQqq-CBlRIt_d9-112">
          <mxGeometry y="120" width="200" height="30" as="geometry" />
        </mxCell>
        <mxCell id="EfLBoHMQqq-CBlRIt_d9-114" value="Archives: Photo Licences" style="rounded=0;whiteSpace=wrap;html=1;fillColor=#FF3333;" vertex="1" parent="EfLBoHMQqq-CBlRIt_d9-112">
          <mxGeometry y="60" width="200" height="30" as="geometry" />
        </mxCell>
        <mxCell id="EfLBoHMQqq-CBlRIt_d9-115" value="Archives: Stockshots Licences" style="rounded=0;whiteSpace=wrap;html=1;fillColor=#FF3333;" vertex="1" parent="EfLBoHMQqq-CBlRIt_d9-112">
          <mxGeometry y="90" width="200" height="30" as="geometry" />
        </mxCell>
        <mxCell id="EfLBoHMQqq-CBlRIt_d9-116" value="Archives: Tech Services" style="rounded=0;whiteSpace=wrap;html=1;fillColor=#FF3333;" vertex="1" parent="EfLBoHMQqq-CBlRIt_d9-112">
          <mxGeometry y="30" width="200" height="30" as="geometry" />
        </mxCell>
        <mxCell id="xtm0gZNpwXOZrQSLIsvq-6" value="Production Tools" style="swimlane;whiteSpace=wrap;html=1;startSize=23;fillColor=none;strokeColor=#000000;" vertex="1" parent="1">
          <mxGeometry x="-1090" y="140" width="200" height="220" as="geometry">
            <mxRectangle x="20" y="140" width="60" height="30" as="alternateBounds" />
          </mxGeometry>
        </mxCell>
        <mxCell id="xtm0gZNpwXOZrQSLIsvq-7" value="" style="rounded=0;whiteSpace=wrap;html=1;" vertex="1" parent="xtm0gZNpwXOZrQSLIsvq-6">
          <mxGeometry y="120" width="200" height="30" as="geometry" />
        </mxCell>
        <mxCell id="xtm0gZNpwXOZrQSLIsvq-8" value="??? (animation uses what???)" style="rounded=0;whiteSpace=wrap;html=1;" vertex="1" parent="xtm0gZNpwXOZrQSLIsvq-6">
          <mxGeometry y="60" width="200" height="30" as="geometry" />
        </mxCell>
        <mxCell id="xtm0gZNpwXOZrQSLIsvq-9" value="???" style="rounded=0;whiteSpace=wrap;html=1;" vertex="1" parent="xtm0gZNpwXOZrQSLIsvq-6">
          <mxGeometry y="90" width="200" height="30" as="geometry" />
        </mxCell>
        <mxCell id="xtm0gZNpwXOZrQSLIsvq-10" value="Flow (ShotGrid)" style="rounded=0;whiteSpace=wrap;html=1;" vertex="1" parent="xtm0gZNpwXOZrQSLIsvq-6">
          <mxGeometry y="30" width="200" height="30" as="geometry" />
        </mxCell>
        <mxCell id="xtm0gZNpwXOZrQSLIsvq-11" value="Archiving Tools" style="swimlane;whiteSpace=wrap;html=1;startSize=23;fillColor=none;strokeColor=#000000;" vertex="1" parent="1">
          <mxGeometry x="-870" y="140" width="200" height="220" as="geometry">
            <mxRectangle x="20" y="140" width="60" height="30" as="alternateBounds" />
          </mxGeometry>
        </mxCell>
        <mxCell id="xtm0gZNpwXOZrQSLIsvq-12" value="" style="rounded=0;whiteSpace=wrap;html=1;" vertex="1" parent="xtm0gZNpwXOZrQSLIsvq-11">
          <mxGeometry y="120" width="200" height="30" as="geometry" />
        </mxCell>
        <mxCell id="xtm0gZNpwXOZrQSLIsvq-13" value="Atempo ADA" style="rounded=0;whiteSpace=wrap;html=1;" vertex="1" parent="xtm0gZNpwXOZrQSLIsvq-11">
          <mxGeometry y="60" width="200" height="30" as="geometry" />
        </mxCell>
        <mxCell id="xtm0gZNpwXOZrQSLIsvq-14" value="" style="rounded=0;whiteSpace=wrap;html=1;" vertex="1" parent="xtm0gZNpwXOZrQSLIsvq-11">
          <mxGeometry y="90" width="200" height="30" as="geometry" />
        </mxCell>
        <mxCell id="xtm0gZNpwXOZrQSLIsvq-15" value="Voûtes Archivage???" style="rounded=0;whiteSpace=wrap;html=1;" vertex="1" parent="xtm0gZNpwXOZrQSLIsvq-11">
          <mxGeometry y="30" width="200" height="30" as="geometry" />
        </mxCell>
        <mxCell id="xtm0gZNpwXOZrQSLIsvq-21" value="Tech Services Tools" style="swimlane;whiteSpace=wrap;html=1;startSize=23;fillColor=none;strokeColor=#000000;" vertex="1" parent="1">
          <mxGeometry x="-650" y="140" width="200" height="220" as="geometry">
            <mxRectangle x="20" y="140" width="60" height="30" as="alternateBounds" />
          </mxGeometry>
        </mxCell>
        <mxCell id="xtm0gZNpwXOZrQSLIsvq-22" value="V2O (???)" style="rounded=0;whiteSpace=wrap;html=1;" vertex="1" parent="xtm0gZNpwXOZrQSLIsvq-21">
          <mxGeometry y="120" width="200" height="30" as="geometry" />
        </mxCell>
        <mxCell id="xtm0gZNpwXOZrQSLIsvq-23" value="Xytech Media Pulse" style="rounded=0;whiteSpace=wrap;html=1;" vertex="1" parent="xtm0gZNpwXOZrQSLIsvq-21">
          <mxGeometry y="60" width="200" height="30" as="geometry" />
        </mxCell>
        <mxCell id="xtm0gZNpwXOZrQSLIsvq-24" value="SGPivot" style="rounded=0;whiteSpace=wrap;html=1;" vertex="1" parent="xtm0gZNpwXOZrQSLIsvq-21">
          <mxGeometry y="90" width="200" height="30" as="geometry" />
        </mxCell>
        <mxCell id="xtm0gZNpwXOZrQSLIsvq-25" value="ScheduAll (to be replaced by Xytech)" style="rounded=0;whiteSpace=wrap;html=1;fillColor=#FF3333;" vertex="1" parent="xtm0gZNpwXOZrQSLIsvq-21">
          <mxGeometry y="30" width="200" height="30" as="geometry" />
        </mxCell>
        <mxCell id="7NPv9n0WX9blXaOLmNNO-7" value="Snipe-IT (suivi equipment)" style="rounded=0;whiteSpace=wrap;html=1;" vertex="1" parent="xtm0gZNpwXOZrQSLIsvq-21">
          <mxGeometry y="150" width="200" height="30" as="geometry" />
        </mxCell>
        <mxCell id="xtm0gZNpwXOZrQSLIsvq-27" value="Assets mgt" style="swimlane;whiteSpace=wrap;html=1;startSize=23;fillColor=none;strokeColor=#000000;" vertex="1" parent="1">
          <mxGeometry x="-425" y="140" width="200" height="220" as="geometry">
            <mxRectangle x="20" y="140" width="60" height="30" as="alternateBounds" />
          </mxGeometry>
        </mxCell>
        <mxCell id="EfLBoHMQqq-CBlRIt_d9-42" value="MAM - SGO&amp;nbsp;" style="rounded=0;whiteSpace=wrap;html=1;" vertex="1" parent="xtm0gZNpwXOZrQSLIsvq-27">
          <mxGeometry y="27" width="200" height="30" as="geometry" />
        </mxCell>
        <mxCell id="EfLBoHMQqq-CBlRIt_d9-41" value="Telescope (photos)" style="rounded=0;whiteSpace=wrap;html=1;" vertex="1" parent="xtm0gZNpwXOZrQSLIsvq-27">
          <mxGeometry y="57" width="200" height="30" as="geometry" />
        </mxCell>
        <mxCell id="EfLBoHMQqq-CBlRIt_d9-33" value="Publisher (??? - not fully developed)" style="rounded=0;whiteSpace=wrap;html=1;" vertex="1" parent="xtm0gZNpwXOZrQSLIsvq-27">
          <mxGeometry y="87" width="200" height="30" as="geometry" />
        </mxCell>
        <mxCell id="xtm0gZNpwXOZrQSLIsvq-32" value="IT tools&amp;nbsp;" style="swimlane;whiteSpace=wrap;html=1;startSize=23;fillColor=none;strokeColor=#000000;" vertex="1" parent="1">
          <mxGeometry x="-200" y="139" width="200" height="220" as="geometry">
            <mxRectangle x="20" y="140" width="60" height="30" as="alternateBounds" />
          </mxGeometry>
        </mxCell>
        <mxCell id="EfLBoHMQqq-CBlRIt_d9-21" value="(external) DataDDO" style="rounded=0;whiteSpace=wrap;html=1;" vertex="1" parent="xtm0gZNpwXOZrQSLIsvq-32">
          <mxGeometry y="61" width="200" height="30" as="geometry" />
        </mxCell>
        <mxCell id="EfLBoHMQqq-CBlRIt_d9-22" value="(external)DataEdo" style="rounded=0;whiteSpace=wrap;html=1;" vertex="1" parent="xtm0gZNpwXOZrQSLIsvq-32">
          <mxGeometry y="30" width="200" height="30" as="geometry" />
        </mxCell>
        <mxCell id="EfLBoHMQqq-CBlRIt_d9-106" value="(external) Amazon AWS" style="rounded=0;whiteSpace=wrap;html=1;" vertex="1" parent="xtm0gZNpwXOZrQSLIsvq-32">
          <mxGeometry y="94" width="200" height="30" as="geometry" />
        </mxCell>
        <mxCell id="7NPv9n0WX9blXaOLmNNO-6" value="Etc." style="rounded=0;whiteSpace=wrap;html=1;" vertex="1" parent="xtm0gZNpwXOZrQSLIsvq-32">
          <mxGeometry y="124" width="200" height="30" as="geometry" />
        </mxCell>
        <mxCell id="EfLBoHMQqq-CBlRIt_d9-132" value="Export Service | ???" style="rounded=0;whiteSpace=wrap;html=1;fillColor=#FFFF33;" vertex="1" parent="xtm0gZNpwXOZrQSLIsvq-32">
          <mxGeometry y="154" width="200" height="30" as="geometry" />
        </mxCell>
        <mxCell id="dWz-Ggie_ELdCXSoMXEQ-23" value="Websites" style="swimlane;whiteSpace=wrap;html=1;startSize=23;" vertex="1" parent="1">
          <mxGeometry x="1210" y="140" width="210" height="490" as="geometry" />
        </mxCell>
        <mxCell id="dWz-Ggie_ELdCXSoMXEQ-24" value="NFB.ca - ONF.ca / &quot;admin&quot;" style="rounded=0;whiteSpace=wrap;html=1;" vertex="1" parent="dWz-Ggie_ELdCXSoMXEQ-23">
          <mxGeometry y="25" width="210" height="30" as="geometry" />
        </mxCell>
        <mxCell id="dWz-Ggie_ELdCXSoMXEQ-25" value="archives.nfb.ca" style="rounded=0;whiteSpace=wrap;html=1;" vertex="1" parent="dWz-Ggie_ELdCXSoMXEQ-23">
          <mxGeometry y="55" width="210" height="30" as="geometry" />
        </mxCell>
        <mxCell id="dWz-Ggie_ELdCXSoMXEQ-26" value="Events (WordPress)" style="rounded=0;whiteSpace=wrap;html=1;" vertex="1" parent="dWz-Ggie_ELdCXSoMXEQ-23">
          <mxGeometry y="85" width="210" height="30" as="geometry" />
        </mxCell>
        <mxCell id="dWz-Ggie_ELdCXSoMXEQ-27" value="Production (WordPress)" style="rounded=0;whiteSpace=wrap;html=1;" vertex="1" parent="dWz-Ggie_ELdCXSoMXEQ-23">
          <mxGeometry y="115" width="210" height="30" as="geometry" />
        </mxCell>
        <mxCell id="dWz-Ggie_ELdCXSoMXEQ-28" value="(external) canada.ca" style="rounded=0;whiteSpace=wrap;html=1;" vertex="1" parent="dWz-Ggie_ELdCXSoMXEQ-23">
          <mxGeometry y="385" width="210" height="30" as="geometry" />
        </mxCell>
        <mxCell id="dWz-Ggie_ELdCXSoMXEQ-29" value="Production (WordPress)" style="rounded=0;whiteSpace=wrap;html=1;" vertex="1" parent="dWz-Ggie_ELdCXSoMXEQ-23">
          <mxGeometry y="145" width="210" height="30" as="geometry" />
        </mxCell>
        <mxCell id="dWz-Ggie_ELdCXSoMXEQ-30" value="Distribution (WordPress)" style="rounded=0;whiteSpace=wrap;html=1;" vertex="1" parent="dWz-Ggie_ELdCXSoMXEQ-23">
          <mxGeometry y="175" width="210" height="30" as="geometry" />
        </mxCell>
        <mxCell id="dWz-Ggie_ELdCXSoMXEQ-31" value="Blog | Blogue" style="rounded=0;whiteSpace=wrap;html=1;" vertex="1" parent="dWz-Ggie_ELdCXSoMXEQ-23">
          <mxGeometry y="205" width="210" height="30" as="geometry" />
        </mxCell>
        <mxCell id="dWz-Ggie_ELdCXSoMXEQ-32" value="Ocean School | École de l&#39;océan" style="rounded=0;whiteSpace=wrap;html=1;" vertex="1" parent="dWz-Ggie_ELdCXSoMXEQ-23">
          <mxGeometry y="235" width="210" height="30" as="geometry" />
        </mxCell>
        <mxCell id="dWz-Ggie_ELdCXSoMXEQ-33" value="Media School | École de médias" style="rounded=0;whiteSpace=wrap;html=1;" vertex="1" parent="dWz-Ggie_ELdCXSoMXEQ-23">
          <mxGeometry y="265" width="210" height="30" as="geometry" />
        </mxCell>
        <mxCell id="dWz-Ggie_ELdCXSoMXEQ-34" value="Media Space (WordPress)" style="rounded=0;whiteSpace=wrap;html=1;" vertex="1" parent="dWz-Ggie_ELdCXSoMXEQ-23">
          <mxGeometry y="295" width="210" height="30" as="geometry" />
        </mxCell>
        <mxCell id="dWz-Ggie_ELdCXSoMXEQ-35" value="Interactives (some) - various platforms" style="rounded=0;whiteSpace=wrap;html=1;" vertex="1" parent="dWz-Ggie_ELdCXSoMXEQ-23">
          <mxGeometry y="355" width="210" height="30" as="geometry" />
        </mxCell>
        <mxCell id="dWz-Ggie_ELdCXSoMXEQ-36" value="Help Centre" style="rounded=0;whiteSpace=wrap;html=1;" vertex="1" parent="dWz-Ggie_ELdCXSoMXEQ-23">
          <mxGeometry y="325" width="210" height="30" as="geometry" />
        </mxCell>
        <mxCell id="dWz-Ggie_ELdCXSoMXEQ-37" value="Apps" style="swimlane;whiteSpace=wrap;html=1;startSize=23;" vertex="1" parent="1">
          <mxGeometry x="1450" y="140" width="210" height="220" as="geometry" />
        </mxCell>
        <mxCell id="dWz-Ggie_ELdCXSoMXEQ-38" value="NFB Films Android&amp;nbsp;" style="rounded=0;whiteSpace=wrap;html=1;" vertex="1" parent="dWz-Ggie_ELdCXSoMXEQ-37">
          <mxGeometry y="25" width="210" height="30" as="geometry" />
        </mxCell>
        <mxCell id="dWz-Ggie_ELdCXSoMXEQ-39" value="NFB Films iOS&amp;nbsp;" style="rounded=0;whiteSpace=wrap;html=1;" vertex="1" parent="dWz-Ggie_ELdCXSoMXEQ-37">
          <mxGeometry y="55" width="210" height="30" as="geometry" />
        </mxCell>
        <mxCell id="dWz-Ggie_ELdCXSoMXEQ-40" value="TV Roku" style="rounded=0;whiteSpace=wrap;html=1;" vertex="1" parent="dWz-Ggie_ELdCXSoMXEQ-37">
          <mxGeometry y="85" width="210" height="30" as="geometry" />
        </mxCell>
        <mxCell id="dWz-Ggie_ELdCXSoMXEQ-41" value="TV Apple" style="rounded=0;whiteSpace=wrap;html=1;" vertex="1" parent="dWz-Ggie_ELdCXSoMXEQ-37">
          <mxGeometry y="115" width="210" height="30" as="geometry" />
        </mxCell>
        <mxCell id="dWz-Ggie_ELdCXSoMXEQ-42" value="TV Android" style="rounded=0;whiteSpace=wrap;html=1;" vertex="1" parent="dWz-Ggie_ELdCXSoMXEQ-37">
          <mxGeometry y="145" width="210" height="30" as="geometry" />
        </mxCell>
        <mxCell id="dWz-Ggie_ELdCXSoMXEQ-43" value="TV Fire" style="rounded=0;whiteSpace=wrap;html=1;" vertex="1" parent="dWz-Ggie_ELdCXSoMXEQ-37">
          <mxGeometry y="175" width="210" height="30" as="geometry" />
        </mxCell>
        <mxCell id="r3UwiPpkkGutJQHzu7cD-4" value="Gov&#39;t apps" style="swimlane;whiteSpace=wrap;html=1;startSize=23;fillColor=none;strokeColor=#000000;" vertex="1" parent="1">
          <mxGeometry x="2150" y="135" width="200" height="220" as="geometry">
            <mxRectangle x="20" y="140" width="60" height="30" as="alternateBounds" />
          </mxGeometry>
        </mxCell>
        <mxCell id="r3UwiPpkkGutJQHzu7cD-6" value="TPSGC (SAP)" style="rounded=0;whiteSpace=wrap;html=1;" vertex="1" parent="r3UwiPpkkGutJQHzu7cD-4">
          <mxGeometry y="60" width="200" height="30" as="geometry" />
        </mxCell>
        <mxCell id="r3UwiPpkkGutJQHzu7cD-7" value="TPSGC (paye) - Phoenix" style="rounded=0;whiteSpace=wrap;html=1;" vertex="1" parent="r3UwiPpkkGutJQHzu7cD-4">
          <mxGeometry y="90" width="200" height="30" as="geometry" />
        </mxCell>
        <mxCell id="r3UwiPpkkGutJQHzu7cD-8" value="MyGC HR" style="rounded=0;whiteSpace=wrap;html=1;" vertex="1" parent="r3UwiPpkkGutJQHzu7cD-4">
          <mxGeometry y="30" width="200" height="30" as="geometry" />
        </mxCell>
        <mxCell id="CyqHT1cvAs0QcPUjKYGp-3" value="External - partners" style="swimlane;whiteSpace=wrap;html=1;startSize=23;" vertex="1" parent="1">
          <mxGeometry x="1700" y="135" width="210" height="1045" as="geometry" />
        </mxCell>
        <mxCell id="ZXEGl0SLkYUYffllCMIX-1" value="(external) Symplify (email)" style="rounded=0;whiteSpace=wrap;html=1;" vertex="1" parent="CyqHT1cvAs0QcPUjKYGp-3">
          <mxGeometry x="5" y="23" width="200" height="30" as="geometry" />
        </mxCell>
        <mxCell id="ZXEGl0SLkYUYffllCMIX-2" value="(external)&amp;nbsp;Sprout Social" style="rounded=0;whiteSpace=wrap;html=1;" vertex="1" parent="CyqHT1cvAs0QcPUjKYGp-3">
          <mxGeometry x="5" y="63" width="200" height="30" as="geometry" />
        </mxCell>
        <mxCell id="ZXEGl0SLkYUYffllCMIX-3" value="(external)&amp;nbsp;Facebook - FB Analytics" style="rounded=0;whiteSpace=wrap;html=1;" vertex="1" parent="CyqHT1cvAs0QcPUjKYGp-3">
          <mxGeometry x="5" y="108" width="200" height="30" as="geometry" />
        </mxCell>
        <mxCell id="ZXEGl0SLkYUYffllCMIX-4" value="(external) Cision (communications)" style="rounded=0;whiteSpace=wrap;html=1;" vertex="1" parent="CyqHT1cvAs0QcPUjKYGp-3">
          <mxGeometry x="5" y="782" width="200" height="30" as="geometry" />
        </mxCell>
        <mxCell id="ZXEGl0SLkYUYffllCMIX-5" value="(external)&amp;nbsp;Twitter - TW Analytics" style="rounded=0;whiteSpace=wrap;html=1;" vertex="1" parent="CyqHT1cvAs0QcPUjKYGp-3">
          <mxGeometry x="5" y="153" width="200" height="30" as="geometry" />
        </mxCell>
        <mxCell id="ZXEGl0SLkYUYffllCMIX-6" value="(external)&amp;nbsp;Instagram - Insta Analytics" style="rounded=0;whiteSpace=wrap;html=1;" vertex="1" parent="CyqHT1cvAs0QcPUjKYGp-3">
          <mxGeometry x="5" y="193" width="200" height="30" as="geometry" />
        </mxCell>
        <mxCell id="ZXEGl0SLkYUYffllCMIX-7" value="(external)&amp;nbsp;YouTube - YT Analytics" style="rounded=0;whiteSpace=wrap;html=1;" vertex="1" parent="CyqHT1cvAs0QcPUjKYGp-3">
          <mxGeometry x="5" y="233" width="200" height="30" as="geometry" />
        </mxCell>
        <mxCell id="ZXEGl0SLkYUYffllCMIX-8" value="(external)&amp;nbsp;Google Analytics" style="rounded=0;whiteSpace=wrap;html=1;" vertex="1" parent="CyqHT1cvAs0QcPUjKYGp-3">
          <mxGeometry x="5" y="273" width="200" height="30" as="geometry" />
        </mxCell>
        <mxCell id="ZXEGl0SLkYUYffllCMIX-9" value="(external) Amazon Prime" style="rounded=0;whiteSpace=wrap;html=1;" vertex="1" parent="CyqHT1cvAs0QcPUjKYGp-3">
          <mxGeometry x="5" y="313" width="200" height="30" as="geometry" />
        </mxCell>
        <mxCell id="ZXEGl0SLkYUYffllCMIX-10" value="(external) Tubi&amp;nbsp;" style="rounded=0;whiteSpace=wrap;html=1;" vertex="1" parent="CyqHT1cvAs0QcPUjKYGp-3">
          <mxGeometry x="5" y="352" width="200" height="30" as="geometry" />
        </mxCell>
        <mxCell id="ZXEGl0SLkYUYffllCMIX-11" value="(external) Tout.tv" style="rounded=0;whiteSpace=wrap;html=1;" vertex="1" parent="CyqHT1cvAs0QcPUjKYGp-3">
          <mxGeometry x="5" y="392" width="200" height="30" as="geometry" />
        </mxCell>
        <mxCell id="ZXEGl0SLkYUYffllCMIX-12" value="(external) Gem (no access)" style="rounded=0;whiteSpace=wrap;html=1;" vertex="1" parent="CyqHT1cvAs0QcPUjKYGp-3">
          <mxGeometry x="5" y="732" width="200" height="30" as="geometry" />
        </mxCell>
        <mxCell id="ZXEGl0SLkYUYffllCMIX-13" value="(external) Medialogique - Numeris (TV data)" style="rounded=0;whiteSpace=wrap;html=1;" vertex="1" parent="CyqHT1cvAs0QcPUjKYGp-3">
          <mxGeometry x="5" y="472" width="200" height="30" as="geometry" />
        </mxCell>
        <mxCell id="ZXEGl0SLkYUYffllCMIX-14" value="(external) Pluto (no data)" style="rounded=0;whiteSpace=wrap;html=1;" vertex="1" parent="CyqHT1cvAs0QcPUjKYGp-3">
          <mxGeometry x="5" y="512" width="200" height="30" as="geometry" />
        </mxCell>
        <mxCell id="ZXEGl0SLkYUYffllCMIX-15" value="(external) Kanopy (???)" style="rounded=0;whiteSpace=wrap;html=1;fillColor=#FFFF33;" vertex="1" parent="CyqHT1cvAs0QcPUjKYGp-3">
          <mxGeometry x="5" y="552" width="200" height="30" as="geometry" />
        </mxCell>
        <mxCell id="ZXEGl0SLkYUYffllCMIX-16" value="(external) Vimeo - social" style="rounded=0;whiteSpace=wrap;html=1;" vertex="1" parent="CyqHT1cvAs0QcPUjKYGp-3">
          <mxGeometry x="5" y="592" width="200" height="30" as="geometry" />
        </mxCell>
        <mxCell id="ZXEGl0SLkYUYffllCMIX-17" value="(external) Vimeo - sharing" style="rounded=0;whiteSpace=wrap;html=1;" vertex="1" parent="CyqHT1cvAs0QcPUjKYGp-3">
          <mxGeometry x="5" y="632" width="200" height="30" as="geometry" />
        </mxCell>
        <mxCell id="ZXEGl0SLkYUYffllCMIX-18" value="(external) Vimeo - social" style="rounded=0;whiteSpace=wrap;html=1;" vertex="1" parent="CyqHT1cvAs0QcPUjKYGp-3">
          <mxGeometry x="5" y="682" width="200" height="30" as="geometry" />
        </mxCell>
        <mxCell id="ZXEGl0SLkYUYffllCMIX-19" value="(external) iTunes" style="rounded=0;whiteSpace=wrap;html=1;" vertex="1" parent="CyqHT1cvAs0QcPUjKYGp-3">
          <mxGeometry x="5" y="432" width="200" height="30" as="geometry" />
        </mxCell>
        <mxCell id="CyqHT1cvAs0QcPUjKYGp-10" value="Analytics tools" style="swimlane;whiteSpace=wrap;html=1;startSize=23;fillColor=none;strokeColor=#000000;" vertex="1" parent="1">
          <mxGeometry x="1930" y="135" width="200" height="220" as="geometry">
            <mxRectangle x="20" y="140" width="60" height="30" as="alternateBounds" />
          </mxGeometry>
        </mxCell>
        <mxCell id="r3UwiPpkkGutJQHzu7cD-1" value="Cognos" style="rounded=0;whiteSpace=wrap;html=1;fillColor=#FF3333;" vertex="1" parent="CyqHT1cvAs0QcPUjKYGp-10">
          <mxGeometry y="30" width="200" height="30" as="geometry" />
        </mxCell>
        <mxCell id="r3UwiPpkkGutJQHzu7cD-2" value="PowerBI" style="rounded=0;whiteSpace=wrap;html=1;" vertex="1" parent="CyqHT1cvAs0QcPUjKYGp-10">
          <mxGeometry y="70" width="200" height="30" as="geometry" />
        </mxCell>
        <mxCell id="r3UwiPpkkGutJQHzu7cD-3" value="Looker Studio" style="rounded=0;whiteSpace=wrap;html=1;" vertex="1" parent="CyqHT1cvAs0QcPUjKYGp-10">
          <mxGeometry y="110" width="200" height="30" as="geometry" />
        </mxCell>
      </root>
    </mxGraphModel>
  </diagram>
</mxfile>
